# Blender v2.79 (sub 0) OBJ File: ''
# www.blender.org
mtllib 9.mtl
o Cylinder.001
v 1.099252 0.696216 0.572775
v 1.601853 0.696216 0.572775
v 1.099252 1.181712 0.165396
v 1.601853 1.181712 0.165396
v 1.099252 0.689665 0.564968
v 1.601853 0.689665 0.564968
v 1.099252 1.175161 0.157589
v 1.601853 1.175161 0.157589
vn 0.0000 0.6428 0.7660
vn -0.0000 -0.6428 -0.7660
vn 0.0000 -0.7660 0.6428
vn -1.0000 0.0000 0.0000
vn 1.0000 0.0000 0.0000
vn 0.0000 0.7660 -0.6428
usemtl None
s off
f 1//1 2//1 4//1 3//1
f 5//2 7//2 8//2 6//2
f 2//3 1//3 5//3 6//3
f 1//4 3//4 7//4 5//4
f 4//5 2//5 6//5 8//5
f 3//6 4//6 8//6 7//6
