# Blender v2.79 (sub 0) OBJ File: ''
# www.blender.org
mtllib 7.mtl
o Text.006_Text.008
v 0.031963 0.020000 -0.394099
v 0.031963 0.020000 -0.514928
v 0.449596 0.020000 -0.514928
v 0.449596 0.020000 -0.418335
v 0.440647 0.020000 -0.410083
v 0.431946 0.020000 -0.401719
v 0.423494 0.020000 -0.393243
v 0.415291 0.020000 -0.384654
v 0.407337 0.020000 -0.375954
v 0.399631 0.020000 -0.367141
v 0.392175 0.020000 -0.358216
v 0.384967 0.020000 -0.349178
v 0.378008 0.020000 -0.340029
v 0.371297 0.020000 -0.330767
v 0.364836 0.020000 -0.321393
v 0.358623 0.020000 -0.311907
v 0.351376 0.020000 -0.300206
v 0.344388 0.020000 -0.288286
v 0.337658 0.020000 -0.276146
v 0.331187 0.020000 -0.263786
v 0.324974 0.020000 -0.251207
v 0.319020 0.020000 -0.238409
v 0.313324 0.020000 -0.225391
v 0.307887 0.020000 -0.212153
v 0.302709 0.020000 -0.198696
v 0.297789 0.020000 -0.185019
v 0.293128 0.020000 -0.171123
v 0.288725 0.020000 -0.157007
v 0.285422 0.020000 -0.145775
v 0.282305 0.020000 -0.134206
v 0.279373 0.020000 -0.122300
v 0.276626 0.020000 -0.110057
v 0.274065 0.020000 -0.097478
v 0.271690 0.020000 -0.084563
v 0.269499 0.020000 -0.071310
v 0.267494 0.020000 -0.057722
v 0.265674 0.020000 -0.043796
v 0.264040 0.020000 -0.029534
v 0.262591 0.020000 -0.014935
v 0.261328 0.020000 0.000000
v 0.118721 0.020000 0.000000
v 0.121666 0.020000 -0.020733
v 0.124878 0.020000 -0.040901
v 0.128359 0.020000 -0.060502
v 0.132108 0.020000 -0.079538
v 0.136125 0.020000 -0.098008
v 0.140411 0.020000 -0.115911
v 0.144965 0.020000 -0.133249
v 0.149787 0.020000 -0.150021
v 0.154878 0.020000 -0.166228
v 0.160237 0.020000 -0.181868
v 0.165864 0.020000 -0.196942
v 0.171760 0.020000 -0.211451
v 0.178082 0.020000 -0.225759
v 0.184990 0.020000 -0.240233
v 0.192483 0.020000 -0.254874
v 0.200562 0.020000 -0.269680
v 0.209226 0.020000 -0.284651
v 0.218476 0.020000 -0.299789
v 0.228311 0.020000 -0.315093
v 0.238731 0.020000 -0.330562
v 0.249737 0.020000 -0.346198
v 0.261328 0.020000 -0.361999
v 0.273504 0.020000 -0.377966
v 0.286266 0.020000 -0.394099
v 0.031963 -0.020000 -0.394099
v 0.031963 -0.020000 -0.514928
v 0.449596 -0.020000 -0.514928
v 0.449596 -0.020000 -0.418335
v 0.440647 -0.020000 -0.410083
v 0.431946 -0.020000 -0.401719
v 0.423494 -0.020000 -0.393243
v 0.415291 -0.020000 -0.384654
v 0.407337 -0.020000 -0.375954
v 0.399631 -0.020000 -0.367141
v 0.392175 -0.020000 -0.358216
v 0.384967 -0.020000 -0.349178
v 0.378008 -0.020000 -0.340029
v 0.371297 -0.020000 -0.330767
v 0.364836 -0.020000 -0.321393
v 0.358623 -0.020000 -0.311907
v 0.351376 -0.020000 -0.300206
v 0.344388 -0.020000 -0.288286
v 0.337658 -0.020000 -0.276146
v 0.331187 -0.020000 -0.263786
v 0.324974 -0.020000 -0.251207
v 0.319020 -0.020000 -0.238409
v 0.313324 -0.020000 -0.225391
v 0.307887 -0.020000 -0.212153
v 0.302709 -0.020000 -0.198696
v 0.297789 -0.020000 -0.185019
v 0.293128 -0.020000 -0.171123
v 0.288725 -0.020000 -0.157007
v 0.285422 -0.020000 -0.145775
v 0.282305 -0.020000 -0.134206
v 0.279373 -0.020000 -0.122300
v 0.276626 -0.020000 -0.110057
v 0.274065 -0.020000 -0.097478
v 0.271690 -0.020000 -0.084563
v 0.269499 -0.020000 -0.071310
v 0.267494 -0.020000 -0.057722
v 0.265674 -0.020000 -0.043796
v 0.264040 -0.020000 -0.029534
v 0.262591 -0.020000 -0.014935
v 0.261328 -0.020000 0.000000
v 0.118721 -0.020000 0.000000
v 0.121666 -0.020000 -0.020733
v 0.124878 -0.020000 -0.040901
v 0.128359 -0.020000 -0.060502
v 0.132108 -0.020000 -0.079538
v 0.136125 -0.020000 -0.098008
v 0.140411 -0.020000 -0.115911
v 0.144965 -0.020000 -0.133249
v 0.149787 -0.020000 -0.150021
v 0.154878 -0.020000 -0.166228
v 0.160237 -0.020000 -0.181868
v 0.165864 -0.020000 -0.196942
v 0.171760 -0.020000 -0.211451
v 0.178082 -0.020000 -0.225759
v 0.184990 -0.020000 -0.240233
v 0.192483 -0.020000 -0.254874
v 0.200562 -0.020000 -0.269680
v 0.209226 -0.020000 -0.284651
v 0.218476 -0.020000 -0.299789
v 0.228311 -0.020000 -0.315093
v 0.238731 -0.020000 -0.330562
v 0.249737 -0.020000 -0.346198
v 0.261328 -0.020000 -0.361999
v 0.273504 -0.020000 -0.377966
v 0.286266 -0.020000 -0.394099
v 0.031963 -0.020000 -0.394099
v 0.031963 0.020000 -0.394099
v 0.031963 -0.020000 -0.514928
v 0.031963 0.020000 -0.514928
v 0.449596 -0.020000 -0.514928
v 0.449596 0.020000 -0.514928
v 0.449596 -0.020000 -0.418335
v 0.449596 0.020000 -0.418335
v 0.440647 -0.020000 -0.410083
v 0.440647 0.020000 -0.410083
v 0.431946 -0.020000 -0.401719
v 0.431946 0.020000 -0.401719
v 0.423494 -0.020000 -0.393243
v 0.423494 0.020000 -0.393243
v 0.415291 -0.020000 -0.384654
v 0.415291 0.020000 -0.384654
v 0.407337 -0.020000 -0.375954
v 0.407337 0.020000 -0.375954
v 0.399631 -0.020000 -0.367141
v 0.399631 0.020000 -0.367141
v 0.392175 -0.020000 -0.358216
v 0.392175 0.020000 -0.358216
v 0.384967 -0.020000 -0.349178
v 0.384967 0.020000 -0.349178
v 0.378008 -0.020000 -0.340029
v 0.378008 0.020000 -0.340029
v 0.371297 -0.020000 -0.330767
v 0.371297 0.020000 -0.330767
v 0.364836 -0.020000 -0.321393
v 0.364836 0.020000 -0.321393
v 0.358623 -0.020000 -0.311907
v 0.358623 0.020000 -0.311907
v 0.351376 -0.020000 -0.300206
v 0.351376 0.020000 -0.300206
v 0.344388 -0.020000 -0.288286
v 0.344388 0.020000 -0.288286
v 0.337658 -0.020000 -0.276146
v 0.337658 0.020000 -0.276146
v 0.331187 -0.020000 -0.263786
v 0.331187 0.020000 -0.263786
v 0.324974 -0.020000 -0.251207
v 0.324974 0.020000 -0.251207
v 0.319020 -0.020000 -0.238409
v 0.319020 0.020000 -0.238409
v 0.313324 -0.020000 -0.225391
v 0.313324 0.020000 -0.225391
v 0.307887 -0.020000 -0.212153
v 0.307887 0.020000 -0.212153
v 0.302709 -0.020000 -0.198696
v 0.302709 0.020000 -0.198696
v 0.297789 -0.020000 -0.185019
v 0.297789 0.020000 -0.185019
v 0.293128 -0.020000 -0.171123
v 0.293128 0.020000 -0.171123
v 0.288725 -0.020000 -0.157007
v 0.288725 0.020000 -0.157007
v 0.285422 -0.020000 -0.145775
v 0.285422 0.020000 -0.145775
v 0.282305 -0.020000 -0.134206
v 0.282305 0.020000 -0.134206
v 0.279373 -0.020000 -0.122300
v 0.279373 0.020000 -0.122300
v 0.276626 -0.020000 -0.110057
v 0.276626 0.020000 -0.110057
v 0.274065 -0.020000 -0.097478
v 0.274065 0.020000 -0.097478
v 0.271690 -0.020000 -0.084563
v 0.271690 0.020000 -0.084563
v 0.269499 -0.020000 -0.071310
v 0.269499 0.020000 -0.071310
v 0.267494 -0.020000 -0.057722
v 0.267494 0.020000 -0.057722
v 0.265674 -0.020000 -0.043796
v 0.265674 0.020000 -0.043796
v 0.264040 -0.020000 -0.029534
v 0.264040 0.020000 -0.029534
v 0.262591 -0.020000 -0.014935
v 0.262591 0.020000 -0.014935
v 0.261328 -0.020000 0.000000
v 0.261328 0.020000 0.000000
v 0.118721 -0.020000 0.000000
v 0.118721 0.020000 0.000000
v 0.121666 -0.020000 -0.020733
v 0.121666 0.020000 -0.020733
v 0.124878 -0.020000 -0.040901
v 0.124878 0.020000 -0.040901
v 0.128359 -0.020000 -0.060502
v 0.128359 0.020000 -0.060502
v 0.132108 -0.020000 -0.079538
v 0.132108 0.020000 -0.079538
v 0.136125 -0.020000 -0.098008
v 0.136125 0.020000 -0.098008
v 0.140411 -0.020000 -0.115911
v 0.140411 0.020000 -0.115911
v 0.144965 -0.020000 -0.133249
v 0.144965 0.020000 -0.133249
v 0.149787 -0.020000 -0.150021
v 0.149787 0.020000 -0.150021
v 0.154878 -0.020000 -0.166228
v 0.154878 0.020000 -0.166228
v 0.160237 -0.020000 -0.181868
v 0.160237 0.020000 -0.181868
v 0.165864 -0.020000 -0.196942
v 0.165864 0.020000 -0.196942
v 0.171760 -0.020000 -0.211451
v 0.171760 0.020000 -0.211451
v 0.178082 -0.020000 -0.225759
v 0.178082 0.020000 -0.225759
v 0.184990 -0.020000 -0.240233
v 0.184990 0.020000 -0.240233
v 0.192483 -0.020000 -0.254874
v 0.192483 0.020000 -0.254874
v 0.200562 -0.020000 -0.269680
v 0.200562 0.020000 -0.269680
v 0.209226 -0.020000 -0.284651
v 0.209226 0.020000 -0.284651
v 0.218476 -0.020000 -0.299789
v 0.218476 0.020000 -0.299789
v 0.228311 -0.020000 -0.315093
v 0.228311 0.020000 -0.315093
v 0.238731 -0.020000 -0.330562
v 0.238731 0.020000 -0.330562
v 0.249737 -0.020000 -0.346198
v 0.249737 0.020000 -0.346198
v 0.261328 -0.020000 -0.361999
v 0.261328 0.020000 -0.361999
v 0.273504 -0.020000 -0.377966
v 0.273504 0.020000 -0.377966
v 0.286266 -0.020000 -0.394099
v 0.286266 0.020000 -0.394099
vn 0.0000 1.0000 0.0000
vn 0.0000 -1.0000 0.0000
vn -0.7071 0.0000 0.7071
vn -0.7071 0.0000 -0.7071
vn 0.7071 0.0000 -0.7071
vn 0.9159 0.0000 0.4013
vn 0.6855 0.0000 0.7281
vn 0.7006 0.0000 0.7135
vn 0.7157 0.0000 0.6984
vn 0.7306 0.0000 0.6827
vn 0.7455 0.0000 0.6665
vn 0.7602 0.0000 0.6497
vn 0.7747 0.0000 0.6324
vn 0.7889 0.0000 0.6145
vn 0.8029 0.0000 0.5961
vn 0.8166 0.0000 0.5771
vn 0.8300 0.0000 0.5577
vn 0.8434 0.0000 0.5372
vn 0.8565 0.0000 0.5162
vn 0.8687 0.0000 0.4953
vn 0.8803 0.0000 0.4743
vn 0.8913 0.0000 0.4534
vn 0.9017 0.0000 0.4323
vn 0.9115 0.0000 0.4113
vn 0.9206 0.0000 0.3904
vn 0.9292 0.0000 0.3695
vn 0.9372 0.0000 0.3488
vn 0.9446 0.0000 0.3283
vn 0.9514 0.0000 0.3079
vn 0.9570 0.0000 0.2899
vn 0.9625 0.0000 0.2711
vn 0.9683 0.0000 0.2496
vn 0.9734 0.0000 0.2290
vn 0.9778 0.0000 0.2092
vn 0.9817 0.0000 0.1902
vn 0.9851 0.0000 0.1720
vn 0.9880 0.0000 0.1545
vn 0.9904 0.0000 0.1378
vn 0.9926 0.0000 0.1217
vn 0.9943 0.0000 0.1063
vn 0.9958 0.0000 0.0915
vn 0.6766 0.0000 0.7363
vn -0.7552 0.0000 0.6555
vn -0.9888 0.0000 -0.1489
vn -0.9861 0.0000 -0.1661
vn -0.9829 0.0000 -0.1840
vn -0.9792 0.0000 -0.2029
vn -0.9749 0.0000 -0.2227
vn -0.9699 0.0000 -0.2434
vn -0.9642 0.0000 -0.2652
vn -0.9576 0.0000 -0.2880
vn -0.9501 0.0000 -0.3119
vn -0.9415 0.0000 -0.3370
vn -0.9317 0.0000 -0.3631
vn -0.9207 0.0000 -0.3903
vn -0.9087 0.0000 -0.4175
vn -0.8964 0.0000 -0.4432
vn -0.8841 0.0000 -0.4673
vn -0.8717 0.0000 -0.4899
vn -0.8595 0.0000 -0.5112
vn -0.8473 0.0000 -0.5310
vn -0.8354 0.0000 -0.5497
vn -0.8236 0.0000 -0.5672
vn -0.8120 0.0000 -0.5835
vn -0.8008 0.0000 -0.5990
vn -0.7897 0.0000 -0.6134
vn -0.9001 0.0000 0.4357
usemtl None
s off
f 1//1 3//1 2//1
f 1//1 4//1 3//1
f 1//1 5//1 4//1
f 1//1 6//1 5//1
f 1//1 65//1 6//1
f 65//1 7//1 6//1
f 64//1 7//1 65//1
f 64//1 8//1 7//1
f 64//1 9//1 8//1
f 63//1 9//1 64//1
f 63//1 10//1 9//1
f 63//1 11//1 10//1
f 62//1 11//1 63//1
f 62//1 12//1 11//1
f 62//1 13//1 12//1
f 61//1 13//1 62//1
f 61//1 14//1 13//1
f 61//1 15//1 14//1
f 60//1 15//1 61//1
f 60//1 16//1 15//1
f 59//1 16//1 60//1
f 59//1 17//1 16//1
f 59//1 18//1 17//1
f 58//1 18//1 59//1
f 58//1 19//1 18//1
f 57//1 19//1 58//1
f 57//1 20//1 19//1
f 56//1 20//1 57//1
f 56//1 21//1 20//1
f 55//1 21//1 56//1
f 55//1 22//1 21//1
f 54//1 22//1 55//1
f 54//1 23//1 22//1
f 53//1 23//1 54//1
f 53//1 24//1 23//1
f 53//1 25//1 24//1
f 52//1 25//1 53//1
f 52//1 26//1 25//1
f 51//1 26//1 52//1
f 51//1 27//1 26//1
f 50//1 27//1 51//1
f 50//1 28//1 27//1
f 49//1 28//1 50//1
f 49//1 29//1 28//1
f 48//1 29//1 49//1
f 48//1 30//1 29//1
f 48//1 31//1 30//1
f 47//1 31//1 48//1
f 47//1 32//1 31//1
f 46//1 32//1 47//1
f 46//1 33//1 32//1
f 45//1 33//1 46//1
f 45//1 34//1 33//1
f 45//1 35//1 34//1
f 44//1 35//1 45//1
f 44//1 36//1 35//1
f 43//1 36//1 44//1
f 43//1 37//1 36//1
f 43//1 38//1 37//1
f 42//1 38//1 43//1
f 42//1 39//1 38//1
f 41//1 39//1 42//1
f 41//1 40//1 39//1
f 68//2 66//2 67//2
f 69//2 66//2 68//2
f 70//2 66//2 69//2
f 71//2 66//2 70//2
f 130//2 66//2 71//2
f 72//2 130//2 71//2
f 72//2 129//2 130//2
f 73//2 129//2 72//2
f 74//2 129//2 73//2
f 74//2 128//2 129//2
f 75//2 128//2 74//2
f 76//2 128//2 75//2
f 76//2 127//2 128//2
f 77//2 127//2 76//2
f 78//2 127//2 77//2
f 78//2 126//2 127//2
f 79//2 126//2 78//2
f 80//2 126//2 79//2
f 80//2 125//2 126//2
f 81//2 125//2 80//2
f 81//2 124//2 125//2
f 82//2 124//2 81//2
f 83//2 124//2 82//2
f 83//2 123//2 124//2
f 84//2 123//2 83//2
f 84//2 122//2 123//2
f 85//2 122//2 84//2
f 85//2 121//2 122//2
f 86//2 121//2 85//2
f 86//2 120//2 121//2
f 87//2 120//2 86//2
f 87//2 119//2 120//2
f 88//2 119//2 87//2
f 88//2 118//2 119//2
f 89//2 118//2 88//2
f 90//2 118//2 89//2
f 90//2 117//2 118//2
f 91//2 117//2 90//2
f 91//2 116//2 117//2
f 92//2 116//2 91//2
f 92//2 115//2 116//2
f 93//2 115//2 92//2
f 93//2 114//2 115//2
f 94//2 114//2 93//2
f 94//2 113//2 114//2
f 95//2 113//2 94//2
f 96//2 113//2 95//2
f 96//2 112//2 113//2
f 97//2 112//2 96//2
f 97//2 111//2 112//2
f 98//2 111//2 97//2
f 98//2 110//2 111//2
f 99//2 110//2 98//2
f 100//2 110//2 99//2
f 100//2 109//2 110//2
f 101//2 109//2 100//2
f 101//2 108//2 109//2
f 102//2 108//2 101//2
f 103//2 108//2 102//2
f 103//2 107//2 108//2
f 104//2 107//2 103//2
f 104//2 106//2 107//2
f 105//2 106//2 104//2
s 1
f 132//3 134//4 133//4 131//3
f 134//4 136//5 135//5 133//4
f 136//5 138//6 137//6 135//5
f 138//6 140//7 139//7 137//6
f 140//7 142//8 141//8 139//7
f 142//8 144//9 143//9 141//8
f 144//9 146//10 145//10 143//9
f 146//10 148//11 147//11 145//10
f 148//11 150//12 149//12 147//11
f 150//12 152//13 151//13 149//12
f 152//13 154//14 153//14 151//13
f 154//14 156//15 155//15 153//14
f 156//15 158//16 157//16 155//15
f 158//16 160//17 159//17 157//16
f 160//17 162//18 161//18 159//17
f 162//18 164//19 163//19 161//18
f 164//19 166//20 165//20 163//19
f 166//20 168//21 167//21 165//20
f 168//21 170//22 169//22 167//21
f 170//22 172//23 171//23 169//22
f 172//23 174//24 173//24 171//23
f 174//24 176//25 175//25 173//24
f 176//25 178//26 177//26 175//25
f 178//26 180//27 179//27 177//26
f 180//27 182//28 181//28 179//27
f 182//28 184//29 183//29 181//28
f 184//29 186//30 185//30 183//29
f 186//30 188//31 187//31 185//30
f 188//31 190//32 189//32 187//31
f 190//32 192//33 191//33 189//32
f 192//33 194//34 193//34 191//33
f 194//34 196//35 195//35 193//34
f 196//35 198//36 197//36 195//35
f 198//36 200//37 199//37 197//36
f 200//37 202//38 201//38 199//37
f 202//38 204//39 203//39 201//38
f 204//39 206//40 205//40 203//39
f 206//40 208//41 207//41 205//40
f 208//41 210//42 209//42 207//41
f 210//42 212//43 211//43 209//42
f 212//43 214//44 213//44 211//43
f 214//44 216//45 215//45 213//44
f 216//45 218//46 217//46 215//45
f 218//46 220//47 219//47 217//46
f 220//47 222//48 221//48 219//47
f 222//48 224//49 223//49 221//48
f 224//49 226//50 225//50 223//49
f 226//50 228//51 227//51 225//50
f 228//51 230//52 229//52 227//51
f 230//52 232//53 231//53 229//52
f 232//53 234//54 233//54 231//53
f 234//54 236//55 235//55 233//54
f 236//55 238//56 237//56 235//55
f 238//56 240//57 239//57 237//56
f 240//57 242//58 241//58 239//57
f 242//58 244//59 243//59 241//58
f 244//59 246//60 245//60 243//59
f 246//60 248//61 247//61 245//60
f 248//61 250//62 249//62 247//61
f 250//62 252//63 251//63 249//62
f 252//63 254//64 253//64 251//63
f 254//64 256//65 255//65 253//64
f 256//65 258//66 257//66 255//65
f 258//66 260//67 259//67 257//66
f 260//67 132//3 131//3 259//67
